
<?xml version="1.0" encoding="UTF-8"?>
<!DOCTYPE svg PUBLIC "-//W3C//DTD SVG 1.1//EN" "http://www.w3.org/Graphics/SVG/1.1/DTD/svg11.dtd">
<svg xmlns="http://www.w3.org/2000/svg" xml:space="preserve" width="100px" height="100px" version="1.1" style="shape-rendering:geometricPrecision; text-rendering:geometricPrecision; image-rendering:optimizeQuality; fill-rule:evenodd; clip-rule:evenodd"
viewBox="0 0 28000 28000"
 xmlns:xlink="http://www.w3.org/1999/xlink">
 <defs>
  <style type="text/css">
   <![CDATA[
    .fil11 {fill:none}
    .fil5 {fill:#BEE4FA;fill-rule:nonzero}
    .fil10 {fill:#B1DFF6;fill-rule:nonzero}
    .fil4 {fill:#004467;fill-rule:nonzero}
    .fil8 {fill:#00526E;fill-rule:nonzero}
    .fil3 {fill:gray;fill-rule:nonzero}
    .fil2 {fill:#F0F0F0;fill-rule:nonzero}
    .fil0 {fill:#F9AF3B;fill-rule:nonzero}
    .fil1 {fill:#FBED21;fill-rule:nonzero}
    .fil9 {fill:#FBFDF2;fill-rule:nonzero}
    .fil7 {fill:#FF4241;fill-rule:nonzero}
    .fil6 {fill:#FF4B48;fill-rule:nonzero}
   ]]>
  </style>
 </defs>
 <g id="Objects">
  <metadata id="CorelCorpID_0Corel-Layer"/>
  <path class="fil0" d="M10130 21490l-1811 -1811 -1811 -1811c0,0 -2645,-282 -4738,3249 0,0 1628,-784 1964,120 0,0 -3808,3660 -3733,6760 3100,75 6760,-3733 6760,-3733 904,337 120,1964 120,1964 3532,-2093 3249,-4738 3249,-4738z"/>
  <path class="fil1" d="M9745 21104l-1426 -1425 -1425 -1425c0,0 -2428,-568 -4074,2210 0,0 1627,-270 1891,441 0,0 -2997,2880 -2938,5320 2440,59 5320,-2938 5320,-2938 711,265 466,1916 466,1916 2778,-1647 2186,-4099 2186,-4099z"/>
  <path class="fil2" d="M9229 20589l-905 -906 -906 -906c0,0 -1542,-360 -2589,1405 0,0 1034,-172 1202,280 0,0 -1904,1830 -1866,3380 1550,38 3379,-1866 3379,-1866 452,168 296,1217 296,1217 1766,-1046 1389,-2604 1389,-2604z"/>
  <polygon class="fil3" points="10339,21699 6299,17659 7210,16748 11250,20788 "/>
  <path class="fil4" d="M9902 11369c0,0 -1293,-1177 -840,-2536 0,0 -6491,1575 -9036,8217 0,0 4831,-3235 8087,-2049l1789 -3632z"/>
  <path class="fil4" d="M16633 18100c0,0 1177,1293 2535,840 0,0 -1574,6491 -8216,9036 0,0 3235,-4831 2049,-8087l3632 -1789z"/>
  <path class="fil5" d="M11254 20792c2941,-980 5657,-2402 9457,-6202 6041,-6041 7289,-14588 7289,-14588 0,0 -8547,1248 -14588,7289 -3800,3800 -5222,6516 -6202,9457l4044 4044z"/>
  <path class="fil4" d="M7712 15373c-183,457 -348,913 -502,1375l4044 4044c462,-154 918,-319 1374,-502l-4916 -4917z"/>
  <path class="fil6" d="M25818 6995c1718,-3834 2182,-6993 2182,-6993 0,0 -3160,463 -6993,2182l4811 4811z"/>
  <path class="fil4" d="M9396 17794c-2382,2382 -3907,4719 -3907,4719 0,0 2337,-1526 4719,-3907 2382,-2383 4131,-4495 3907,-4719 -224,-224 -2337,1525 -4719,3907z"/>
  <path class="fil7" d="M21431 10011c-950,951 -2490,951 -3441,0 -950,-950 -950,-2490 0,-3440 950,-950 2491,-951 3441,0 950,950 950,2490 0,3440z"/>
  <path class="fil8" d="M20980 9560c-701,701 -1837,701 -2539,0 -701,-701 -701,-1837 0,-2538 701,-701 1838,-701 2539,0 701,701 701,1837 0,2538z"/>
  <path class="fil3" d="M8678 20037l1661 1662 911 -911 -1620 -1620c-324,307 -643,598 -952,869z"/>
  <path class="fil4" d="M19168 18940c-1358,453 -2535,-840 -2535,-840l-2 0c-1249,882 -2408,1511 -3561,2006 974,3249 -2118,7870 -2118,7870 6642,-2545 8216,-9036 8216,-9036z"/>
  <path class="fil9" d="M27987 84c-2,13 -5,28 -7,44 2,-16 5,-31 7,-44z"/>
  <path class="fil9" d="M27998 15c-1,4 -2,11 -3,18 2,-10 2,-13 3,-18z"/>
  <path class="fil10" d="M20711 14590c5358,-5358 6944,-12682 7235,-14271 -164,892 -732,3561 -2128,6676l-2406 -2405 -1981 1981c950,950 950,2490 0,3440 -950,951 -2490,951 -3441,0l-3875 3876c213,212 -1349,2122 -3541,4349l2054 2054c147,-60 295,-121 442,-184 1153,-495 2312,-1124 3561,-2006 1245,-878 2577,-2008 4080,-3510z"/>
  <path class="fil9" d="M11914 20562c-219,79 -439,156 -660,230 221,-74 441,-151 660,-230z"/>
  <path class="fil9" d="M27973 164c-7,44 -16,94 -27,154 11,-60 20,-111 27,-154z"/>
  <path class="fil9" d="M12627 20291c-220,87 -439,171 -659,251 220,-80 439,-164 659,-251z"/>
  <path class="fil6" d="M27946 319c0,0 0,-1 0,-1 11,-60 20,-110 27,-154 3,-13 5,-25 7,-36 2,-16 5,-31 7,-44 4,-21 6,-38 8,-51 1,-7 2,-14 3,-18 1,-8 2,-13 2,-13l-4588 4588 2406 2405c1396,-3115 1964,-5784 2128,-6676z"/>
  <path class="fil4" d="M14115 13887l-3945 3945 -938 938 -911 911 -2832 2832c0,0 1428,-932 3189,-2476 309,-271 628,-562 952,-869l1620 1620 4 4c221,-74 441,-151 660,-230 18,-7 36,-13 54,-20 220,-80 439,-164 659,-251 0,-1 1,-1 1,-1l-2054 -2054c2192,-2227 3754,-4137 3541,-4349z"/>
  <path class="fil7" d="M21431 10011c950,-950 950,-2490 0,-3440l-451 451c701,701 701,1837 0,2538 -701,701 -1837,701 -2539,0l-451 451c951,951 2491,951 3441,0z"/>
  <path class="fil8" d="M20980 9560c701,-701 701,-1837 0,-2538l-2539 2538c702,701 1838,701 2539,0z"/>
  <rect class="fil11" width="28000" height="28000"/>
 </g>
</svg>
