<svg xmlns="http://www.w3.org/2000/svg" xml:space="preserve" fill-rule="evenodd" clip-rule="evenodd" image-rendering="optimizeQuality" shape-rendering="geometricPrecision" text-rendering="geometricPrecision" viewBox="0 0 28000 28000">
  <defs>
    <style>
      .fil3,.fil4,.fil8{fill-rule:nonzero}.fil4,.fil8{fill:#004467}.fil8{fill:#00526e}.fil3{fill:gray}.fil6,.fil7,.fil9{fill-rule:nonzero}.fil9{fill:#fbfdf2}.fil7{fill:#ff4241}.fil6{fill:#ff4b48}
    </style>
  </defs>
  <g id="Objects">
    <path fill="#f9af3b" fill-rule="nonzero" d="m10130 21490-1811-1811-1811-1811s-2645-282-4738 3249c0 0 1628-784 1964 120 0 0-3808 3660-3733 6760 3100 75 6760-3733 6760-3733 904 337 120 1964 120 1964 3532-2093 3249-4738 3249-4738z"/>
    <path fill="#fbed21" fill-rule="nonzero" d="m9745 21104-1426-1425-1425-1425s-2428-568-4074 2210c0 0 1627-270 1891 441 0 0-2997 2880-2938 5320 2440 59 5320-2938 5320-2938 711 265 466 1916 466 1916 2778-1647 2186-4099 2186-4099z"/>
    <path fill="#f0f0f0" fill-rule="nonzero" d="m9229 20589-905-906-906-906s-1542-360-2589 1405c0 0 1034-172 1202 280 0 0-1904 1830-1866 3380 1550 38 3379-1866 3379-1866 452 168 296 1217 296 1217 1766-1046 1389-2604 1389-2604z"/>
    <path d="m10339 21699-4040-4040 911-911 4040 4040z" class="fil3"/>
    <path d="M9902 11369s-1293-1177-840-2536c0 0-6491 1575-9036 8217 0 0 4831-3235 8087-2049l1789-3632zm6731 6731s1177 1293 2535 840c0 0-1574 6491-8216 9036 0 0 3235-4831 2049-8087l3632-1789z" class="fil4"/>
    <path fill="#bee4fa" fill-rule="nonzero" d="M11254 20792c2941-980 5657-2402 9457-6202C26752 8549 28000 2 28000 2s-8547 1248-14588 7289c-3800 3800-5222 6516-6202 9457l4044 4044z"/>
    <path d="M7712 15373c-183 457-348 913-502 1375l4044 4044c462-154 918-319 1374-502l-4916-4917z" class="fil4"/>
    <path d="M25818 6995C27536 3161 28000 2 28000 2s-3160 463-6993 2182l4811 4811z" class="fil6"/>
    <path d="M9396 17794c-2382 2382-3907 4719-3907 4719s2337-1526 4719-3907c2382-2383 4131-4495 3907-4719s-2337 1525-4719 3907z" class="fil4"/>
    <path d="M21431 10011c-950 951-2490 951-3441 0-950-950-950-2490 0-3440s2491-951 3441 0c950 950 950 2490 0 3440z" class="fil7"/>
    <path d="M20980 9560c-701 701-1837 701-2539 0-701-701-701-1837 0-2538s1838-701 2539 0 701 1837 0 2538z" class="fil8"/>
    <path d="m8678 20037 1661 1662 911-911-1620-1620c-324 307-643 598-952 869z" class="fil3"/>
    <path d="M19168 18940c-1358 453-2535-840-2535-840h-2c-1249 882-2408 1511-3561 2006 974 3249-2118 7870-2118 7870 6642-2545 8216-9036 8216-9036z" class="fil4"/>
    <path d="M27987 84c-2 13-5 28-7 44 2-16 5-31 7-44zm11-69c-1 4-2 11-3 18 2-10 2-13 3-18z" class="fil9"/>
    <path fill="#b1dff6" fill-rule="nonzero" d="M20711 14590c5358-5358 6944-12682 7235-14271-164 892-732 3561-2128 6676l-2406-2405-1981 1981c950 950 950 2490 0 3440-950 951-2490 951-3441 0l-3875 3876c213 212-1349 2122-3541 4349l2054 2054c147-60 295-121 442-184 1153-495 2312-1124 3561-2006 1245-878 2577-2008 4080-3510z"/>
    <path d="M11914 20562zM27973 164zM12627 20291z" class="fil9"/>
    <path d="M27946 319v-1c11-60 20-110 27-154 3-13 5-25 7-36 2-16 5-31 7-44 4-21 6-38 8-51 1-7 2-14 3-18 1-8 2-13 2-13l-4588 4588 2406 2405c1396-3115 1964-5784 2128-6676z" class="fil6"/>
    <path d="m14115 13887-3945 3945-938 938-911 911-2832 2832s1428-932 3189-2476c309-271 628-562 952-869l1620 1620 4 4c221-74 441-151 660-230 18-7 36-13 54-20 220-80 439-164 659-251 0-1 1-1 1-1l-2054-2054c2192-2227 3754-4137 3541-4349z" class="fil4"/>
    <path d="M21431 10011c950-950 950-2490 0-3440l-451 451c701 701 701 1837 0 2538s-1837 701-2539 0l-451 451c951 951 2491 951 3441 0z" class="fil7"/>
    <path d="M20980 9560c701-701 701-1837 0-2538l-2539 2538c702 701 1838 701 2539 0z" class="fil8"/>
    <path fill="none" d="M0 0h28000v28000H0z"/>
  </g>
</svg>
